<svg width="1000" height="478" viewBox="0 0 1000 478" fill="none" xmlns="http://www.w3.org/2000/svg">
<g opacity="0.29827">
<path d="M1008.08 145.448L443.182 -374.858V-765.19L28.1096 -788C24.9043 -780.456 4.36709 -758.714 7.57176 -746.596C11.43 -732.102 30.8387 -736.735 36.4776 -727.409C43.0661 -716.42 31.7291 -671.749 28.3457 -658.86C21.8759 -634.445 7.09676 -614.665 2.82235 -590.25C-4.35982 -549.263 10.1824 -552.53 37.7242 -526.927C84.141 -483.742 46.9244 -438.952 58.6176 -388.223C68.1146 -346.878 109.605 -325.554 124.8 -284.211C136.553 -252.37 152.697 -244.233 177.746 -220.947C177.153 -235.084 164.51 -276.785 188.253 -273.102C211.817 -269.478 202.736 -234.669 207.247 -220.115C211.045 -207.997 237.933 -183.761 215.616 -172.593C208.196 -168.91 187.066 -183.582 178.577 -187.503C184.572 -168.791 180.774 -149.367 190.271 -131.487C201.608 -110.162 213.835 -118.359 228.853 -106.775C244.344 -94.8355 242.683 -81.1137 235.797 -63.0554C228.615 -44.2247 221.196 -47.1352 232.592 -24.4434C240.843 -8.04881 254.85 12.7421 266.9 25.2164C273.904 32.4634 281.502 34.1267 288.506 43.3932C294.323 51.1155 292.067 61.2142 299.012 68.1638C310.883 80.1037 331.006 80.282 340.384 95.9044C350.831 113.309 338.96 126.437 369.706 124.833C371.309 159.643 377.897 191.185 377.541 225.994C394.695 232.825 422.414 224.687 440.399 221.063C458.266 245.18 481.355 228.429 501.774 241.558C510.678 247.26 508.837 261.517 514.239 266.506C525.339 276.723 533.529 270.308 547.301 273.872C557.51 276.486 565.404 283.97 575.138 286.703C584.338 289.257 599.475 283.258 606.301 291.396C614.492 301.138 600.78 318.958 613.127 326.799C623.395 333.333 638.115 317.77 648.088 320.027C659.721 322.7 693.079 353.174 701.271 363.212C710.59 374.677 719.969 396.062 725.25 410.793C733.501 433.841 732.373 445.127 749.408 461.998C760.27 472.75 749.942 473.522 767.63 476.67C779.204 478.749 794.518 470.374 806.212 469.067C830.549 466.394 855.122 471.027 879.102 466.453C901.421 462.176 922.729 455.166 945.64 451.899C965.465 449.048 1000.37 451.246 1017.94 441.801C1036.99 431.643 1038.71 408.654 1011.17 412.932C1008.97 398.26 1018.77 378.003 1007.85 367.847C1023.04 347.056 1028.56 332.384 1030.93 306.959C1032 295.792 1032.48 283.436 1038 274.05C1043.4 264.783 1058.59 259.259 1061.56 251.299C1066.13 238.943 1058.83 233.419 1053.25 226.528C1049.69 222.073 1039.54 224.212 1036.63 220.291C1031.23 213.103 1036.57 205.678 1033.6 198.431C1024.94 177.462 1014.61 169.205 1008.08 145.444C1008.26 149.424 1008.44 153.463 1008.2 157.384" stroke="white" stroke-width="2" stroke-linecap="round" stroke-linejoin="round"/>
</g>
<path fill-rule="evenodd" clip-rule="evenodd" d="M725 453C726.657 453 728 451.657 728 450C728 448.343 726.657 447 725 447C723.343 447 722 448.343 722 450C722 451.657 723.343 453 725 453Z" fill="#4AF6CD"/>
<path fill-rule="evenodd" clip-rule="evenodd" d="M576 297C577.657 297 579 295.657 579 294C579 292.343 577.657 291 576 291C574.343 291 573 292.343 573 294C573 295.657 574.343 297 576 297Z" fill="#4AF6CD"/>
<path fill-rule="evenodd" clip-rule="evenodd" d="M376 209C377.657 209 379 207.657 379 206C379 204.343 377.657 203 376 203C374.343 203 373 204.343 373 206C373 207.657 374.343 209 376 209Z" fill="#4AF6CD"/>
<path fill-rule="evenodd" clip-rule="evenodd" d="M729.5 73C733.09 73 736 70.0899 736 66.5C736 62.9101 733.09 60 729.5 60C725.91 60 723 62.9101 723 66.5C723 70.0899 725.91 73 729.5 73Z" fill="#4AF6CD"/>
<path d="M598.378 57.784C599.039 57.784 599.594 57.8693 600.042 58.04C600.501 58.2107 600.965 58.488 601.434 58.872L600.602 59.848C599.93 59.304 599.221 59.032 598.474 59.032C597.557 59.032 596.815 59.384 596.25 60.088C595.695 60.792 595.418 61.9227 595.418 63.48C595.418 64.9947 595.695 66.1147 596.25 66.84C596.805 67.5547 597.541 67.912 598.458 67.912C598.927 67.912 599.338 67.832 599.69 67.672C600.042 67.512 600.415 67.288 600.81 67L601.562 67.96C601.221 68.312 600.783 68.6053 600.25 68.84C599.717 69.0747 599.103 69.192 598.41 69.192C597.514 69.192 596.714 68.9733 596.01 68.536C595.317 68.088 594.773 67.4373 594.378 66.584C593.994 65.72 593.802 64.6853 593.802 63.48C593.802 62.2747 594.005 61.2453 594.41 60.392C594.815 59.528 595.365 58.8773 596.058 58.44C596.751 58.0027 597.525 57.784 598.378 57.784ZM609.401 69H608.137L608.025 67.688C607.705 68.2107 607.337 68.5947 606.921 68.84C606.505 69.0747 605.999 69.192 605.401 69.192C604.665 69.192 604.089 68.968 603.673 68.52C603.257 68.072 603.049 67.4373 603.049 66.616V60.568H604.521V66.456C604.521 67.032 604.623 67.4427 604.825 67.688C605.028 67.9227 605.359 68.04 605.817 68.04C606.639 68.04 607.343 67.5547 607.929 66.584V60.568H609.401V69ZM616.106 60.376C616.405 60.376 616.682 60.408 616.938 60.472L616.666 61.912C616.41 61.848 616.165 61.816 615.93 61.816C615.407 61.816 614.986 62.008 614.666 62.392C614.346 62.776 614.095 63.3733 613.914 64.184V69H612.442V60.568H613.706L613.85 62.28C614.074 61.6507 614.378 61.176 614.762 60.856C615.146 60.536 615.594 60.376 616.106 60.376ZM622.278 60.376C622.576 60.376 622.854 60.408 623.11 60.472L622.838 61.912C622.582 61.848 622.336 61.816 622.102 61.816C621.579 61.816 621.158 62.008 620.838 62.392C620.518 62.776 620.267 63.3733 620.086 64.184V69H618.614V60.568H619.878L620.022 62.28C620.246 61.6507 620.55 61.176 620.934 60.856C621.318 60.536 621.766 60.376 622.278 60.376ZM630.669 64.536C630.669 64.7813 630.659 65.032 630.637 65.288H625.261C625.325 66.216 625.56 66.8987 625.965 67.336C626.371 67.7733 626.893 67.992 627.533 67.992C627.939 67.992 628.312 67.9333 628.653 67.816C628.995 67.6987 629.352 67.512 629.725 67.256L630.365 68.136C629.469 68.84 628.488 69.192 627.421 69.192C626.248 69.192 625.331 68.808 624.669 68.04C624.019 67.272 623.693 66.216 623.693 64.872C623.693 63.9973 623.832 63.224 624.109 62.552C624.397 61.8693 624.803 61.336 625.325 60.952C625.859 60.568 626.483 60.376 627.197 60.376C628.317 60.376 629.176 60.744 629.773 61.48C630.371 62.216 630.669 63.2347 630.669 64.536ZM629.213 64.104C629.213 63.272 629.048 62.6373 628.717 62.2C628.387 61.7627 627.891 61.544 627.229 61.544C626.024 61.544 625.368 62.4293 625.261 64.2H629.213V64.104ZM636.988 60.376C637.756 60.376 638.353 60.6053 638.78 61.064C639.217 61.5227 639.436 62.152 639.436 62.952V69H637.964V63.16C637.964 62.5627 637.852 62.1413 637.628 61.896C637.404 61.6507 637.073 61.528 636.636 61.528C636.188 61.528 635.793 61.656 635.452 61.912C635.111 62.168 634.791 62.536 634.492 63.016V69H633.02V60.568H634.284L634.412 61.816C634.711 61.368 635.079 61.016 635.516 60.76C635.964 60.504 636.455 60.376 636.988 60.376ZM646.651 68.616C646.096 69 645.467 69.192 644.763 69.192C644.048 69.192 643.488 68.9893 643.083 68.584C642.688 68.168 642.491 67.5707 642.491 66.792V61.704H641.019V60.568H642.491V58.664L643.963 58.488V60.568H645.963L645.803 61.704H643.963V66.728C643.963 67.1653 644.038 67.4853 644.187 67.688C644.347 67.88 644.608 67.976 644.971 67.976C645.302 67.976 645.675 67.864 646.091 67.64L646.651 68.616ZM654.011 57.976V67.672H658.539L658.363 69H652.491V57.976H654.011ZM663.141 60.376C664.325 60.376 665.242 60.7707 665.893 61.56C666.554 62.3493 666.885 63.4213 666.885 64.776C666.885 65.6507 666.736 66.424 666.437 67.096C666.138 67.7573 665.706 68.2747 665.141 68.648C664.576 69.0107 663.904 69.192 663.125 69.192C661.941 69.192 661.018 68.7973 660.357 68.008C659.696 67.2187 659.365 66.1467 659.365 64.792C659.365 63.9173 659.514 63.1493 659.813 62.488C660.112 61.816 660.544 61.2987 661.109 60.936C661.674 60.5627 662.352 60.376 663.141 60.376ZM663.141 61.56C661.68 61.56 660.949 62.6373 660.949 64.792C660.949 66.936 661.674 68.008 663.125 68.008C664.576 68.008 665.301 66.9307 665.301 64.776C665.301 62.632 664.581 61.56 663.141 61.56ZM672.389 60.376C672.89 60.376 673.349 60.4507 673.765 60.6C674.181 60.7387 674.581 60.968 674.965 61.288L674.261 62.216C673.962 62.0027 673.669 61.848 673.381 61.752C673.104 61.6453 672.794 61.592 672.453 61.592C671.77 61.592 671.237 61.864 670.853 62.408C670.48 62.952 670.293 63.7573 670.293 64.824C670.293 65.8907 670.48 66.68 670.853 67.192C671.226 67.6933 671.76 67.944 672.453 67.944C672.784 67.944 673.088 67.896 673.365 67.8C673.642 67.6933 673.952 67.528 674.293 67.304L674.965 68.264C674.197 68.8827 673.338 69.192 672.389 69.192C671.248 69.192 670.346 68.808 669.685 68.04C669.034 67.272 668.709 66.2107 668.709 64.856C668.709 63.96 668.858 63.176 669.157 62.504C669.456 61.832 669.877 61.3093 670.421 60.936C670.976 60.5627 671.632 60.376 672.389 60.376ZM682.481 67.032C682.481 67.3733 682.54 67.6293 682.657 67.8C682.775 67.96 682.951 68.0827 683.185 68.168L682.849 69.192C682.412 69.1387 682.06 69.016 681.793 68.824C681.527 68.632 681.329 68.3333 681.201 67.928C680.636 68.7707 679.799 69.192 678.689 69.192C677.857 69.192 677.201 68.9573 676.721 68.488C676.241 68.0187 676.001 67.4053 676.001 66.648C676.001 65.752 676.321 65.064 676.961 64.584C677.612 64.104 678.529 63.864 679.713 63.864H681.009V63.24C681.009 62.6427 680.865 62.216 680.577 61.96C680.289 61.704 679.847 61.576 679.249 61.576C678.631 61.576 677.873 61.7253 676.977 62.024L676.609 60.952C677.655 60.568 678.625 60.376 679.521 60.376C680.513 60.376 681.255 60.6213 681.745 61.112C682.236 61.592 682.481 62.28 682.481 63.176V67.032ZM679.025 68.088C679.868 68.088 680.529 67.6507 681.009 66.776V64.84H679.905C678.348 64.84 677.569 65.416 677.569 66.568C677.569 67.0693 677.692 67.448 677.937 67.704C678.183 67.96 678.545 68.088 679.025 68.088ZM689.76 68.616C689.206 69 688.576 69.192 687.872 69.192C687.158 69.192 686.598 68.9893 686.192 68.584C685.798 68.168 685.6 67.5707 685.6 66.792V61.704H684.128V60.568H685.6V58.664L687.072 58.488V60.568H689.072L688.912 61.704H687.072V66.728C687.072 67.1653 687.147 67.4853 687.296 67.688C687.456 67.88 687.718 67.976 688.08 67.976C688.411 67.976 688.784 67.864 689.2 67.64L689.76 68.616ZM692.758 60.568V69H691.286V60.568H692.758ZM692.006 56.52C692.315 56.52 692.566 56.616 692.758 56.808C692.95 57 693.046 57.24 693.046 57.528C693.046 57.816 692.95 58.056 692.758 58.248C692.566 58.4293 692.315 58.52 692.006 58.52C691.707 58.52 691.462 58.4293 691.27 58.248C691.078 58.056 690.982 57.816 690.982 57.528C690.982 57.24 691.078 57 691.27 56.808C691.462 56.616 691.707 56.52 692.006 56.52ZM698.969 60.376C700.153 60.376 701.071 60.7707 701.721 61.56C702.383 62.3493 702.713 63.4213 702.713 64.776C702.713 65.6507 702.564 66.424 702.265 67.096C701.967 67.7573 701.535 68.2747 700.969 68.648C700.404 69.0107 699.732 69.192 698.953 69.192C697.769 69.192 696.847 68.7973 696.185 68.008C695.524 67.2187 695.193 66.1467 695.193 64.792C695.193 63.9173 695.343 63.1493 695.641 62.488C695.94 61.816 696.372 61.2987 696.937 60.936C697.503 60.5627 698.18 60.376 698.969 60.376ZM698.969 61.56C697.508 61.56 696.777 62.6373 696.777 64.792C696.777 66.936 697.503 68.008 698.953 68.008C700.404 68.008 701.129 66.9307 701.129 64.776C701.129 62.632 700.409 61.56 698.969 61.56ZM709.113 60.376C709.881 60.376 710.478 60.6053 710.905 61.064C711.342 61.5227 711.561 62.152 711.561 62.952V69H710.089V63.16C710.089 62.5627 709.977 62.1413 709.753 61.896C709.529 61.6507 709.198 61.528 708.761 61.528C708.313 61.528 707.918 61.656 707.577 61.912C707.236 62.168 706.916 62.536 706.617 63.016V69H705.145V60.568H706.409L706.537 61.816C706.836 61.368 707.204 61.016 707.641 60.76C708.089 60.504 708.58 60.376 709.113 60.376Z" fill="white"/>
</svg>
